<mxfile host="app.diagrams.net" agent="Mozilla/5.0 (Windows NT 10.0; Win64; x64) AppleWebKit/537.36 (KHTML, like Gecko) Chrome/129.0.0.0 Safari/537.36 Edg/129.0.0.0" version="24.7.17">
  <diagram name="Page-1" id="PCKs0Zftp_XRR_1ns8uL">
    <mxGraphModel dx="1426" dy="783" grid="1" gridSize="10" guides="1" tooltips="1" connect="1" arrows="1" fold="1" page="1" pageScale="1" pageWidth="850" pageHeight="1100" math="0" shadow="0">
      <root>
        <mxCell id="0" />
        <mxCell id="1" parent="0" />
        <mxCell id="TIjbKh-YFhSQf0g--OvW-1" value="" style="rounded=0;whiteSpace=wrap;html=1;fillColor=#4D4D4D;strokeColor=#000000;" vertex="1" parent="1">
          <mxGeometry x="240" y="230" width="330" height="180" as="geometry" />
        </mxCell>
        <mxCell id="TIjbKh-YFhSQf0g--OvW-2" value="" style="rounded=0;whiteSpace=wrap;html=1;" vertex="1" parent="1">
          <mxGeometry x="290" y="240" width="60" height="30" as="geometry" />
        </mxCell>
        <mxCell id="TIjbKh-YFhSQf0g--OvW-4" value="" style="rounded=0;whiteSpace=wrap;html=1;" vertex="1" parent="1">
          <mxGeometry x="360" y="240" width="60" height="30" as="geometry" />
        </mxCell>
        <mxCell id="TIjbKh-YFhSQf0g--OvW-5" value="" style="rounded=0;whiteSpace=wrap;html=1;" vertex="1" parent="1">
          <mxGeometry x="430" y="240" width="60" height="30" as="geometry" />
        </mxCell>
        <mxCell id="TIjbKh-YFhSQf0g--OvW-6" value="" style="rounded=0;whiteSpace=wrap;html=1;" vertex="1" parent="1">
          <mxGeometry x="500" y="240" width="60" height="30" as="geometry" />
        </mxCell>
        <mxCell id="TIjbKh-YFhSQf0g--OvW-10" value="" style="rounded=0;whiteSpace=wrap;html=1;" vertex="1" parent="1">
          <mxGeometry x="290" y="290" width="60" height="30" as="geometry" />
        </mxCell>
        <mxCell id="TIjbKh-YFhSQf0g--OvW-11" value="" style="rounded=0;whiteSpace=wrap;html=1;" vertex="1" parent="1">
          <mxGeometry x="360" y="290" width="60" height="30" as="geometry" />
        </mxCell>
        <mxCell id="TIjbKh-YFhSQf0g--OvW-13" value="" style="rounded=0;whiteSpace=wrap;html=1;" vertex="1" parent="1">
          <mxGeometry x="500" y="290" width="60" height="30" as="geometry" />
        </mxCell>
        <mxCell id="TIjbKh-YFhSQf0g--OvW-14" value="" style="rounded=0;whiteSpace=wrap;html=1;" vertex="1" parent="1">
          <mxGeometry x="430" y="290" width="60" height="30" as="geometry" />
        </mxCell>
        <mxCell id="TIjbKh-YFhSQf0g--OvW-15" value="" style="rounded=0;whiteSpace=wrap;html=1;" vertex="1" parent="1">
          <mxGeometry x="290" y="340" width="60" height="30" as="geometry" />
        </mxCell>
        <mxCell id="TIjbKh-YFhSQf0g--OvW-17" value="" style="rounded=0;whiteSpace=wrap;html=1;" vertex="1" parent="1">
          <mxGeometry x="360" y="340" width="60" height="30" as="geometry" />
        </mxCell>
        <mxCell id="TIjbKh-YFhSQf0g--OvW-19" value="" style="rounded=0;whiteSpace=wrap;html=1;" vertex="1" parent="1">
          <mxGeometry x="430" y="340" width="60" height="30" as="geometry" />
        </mxCell>
        <mxCell id="TIjbKh-YFhSQf0g--OvW-20" value="" style="rounded=0;whiteSpace=wrap;html=1;" vertex="1" parent="1">
          <mxGeometry x="500" y="340" width="60" height="30" as="geometry" />
        </mxCell>
        <mxCell id="TIjbKh-YFhSQf0g--OvW-32" value="" style="endArrow=none;html=1;rounded=0;" edge="1" parent="1">
          <mxGeometry width="50" height="50" relative="1" as="geometry">
            <mxPoint x="325" y="245" as="sourcePoint" />
            <mxPoint x="295" y="135" as="targetPoint" />
            <Array as="points">
              <mxPoint x="375" y="225" />
            </Array>
          </mxGeometry>
        </mxCell>
        <mxCell id="TIjbKh-YFhSQf0g--OvW-33" value="" style="endArrow=none;html=1;rounded=0;" edge="1" parent="1">
          <mxGeometry width="50" height="50" relative="1" as="geometry">
            <mxPoint x="390" y="245" as="sourcePoint" />
            <mxPoint x="360" y="135" as="targetPoint" />
            <Array as="points">
              <mxPoint x="440" y="225" />
            </Array>
          </mxGeometry>
        </mxCell>
        <mxCell id="TIjbKh-YFhSQf0g--OvW-34" value="" style="endArrow=none;html=1;rounded=0;" edge="1" parent="1">
          <mxGeometry width="50" height="50" relative="1" as="geometry">
            <mxPoint x="470" y="245" as="sourcePoint" />
            <mxPoint x="440" y="135" as="targetPoint" />
            <Array as="points">
              <mxPoint x="520" y="225" />
            </Array>
          </mxGeometry>
        </mxCell>
        <mxCell id="TIjbKh-YFhSQf0g--OvW-35" value="" style="endArrow=none;html=1;rounded=0;" edge="1" parent="1">
          <mxGeometry width="50" height="50" relative="1" as="geometry">
            <mxPoint x="540" y="245" as="sourcePoint" />
            <mxPoint x="510" y="135" as="targetPoint" />
            <Array as="points">
              <mxPoint x="590" y="225" />
            </Array>
          </mxGeometry>
        </mxCell>
        <mxCell id="TIjbKh-YFhSQf0g--OvW-36" value="" style="whiteSpace=wrap;html=1;aspect=fixed;fillColor=#3333FF;" vertex="1" parent="1">
          <mxGeometry x="250" y="80" width="60" height="60" as="geometry" />
        </mxCell>
        <mxCell id="TIjbKh-YFhSQf0g--OvW-37" value="" style="whiteSpace=wrap;html=1;aspect=fixed;fillColor=#3333FF;" vertex="1" parent="1">
          <mxGeometry x="320" y="80" width="60" height="60" as="geometry" />
        </mxCell>
        <mxCell id="TIjbKh-YFhSQf0g--OvW-38" value="" style="whiteSpace=wrap;html=1;aspect=fixed;fillColor=#3333FF;" vertex="1" parent="1">
          <mxGeometry x="395" y="80" width="60" height="60" as="geometry" />
        </mxCell>
        <mxCell id="TIjbKh-YFhSQf0g--OvW-39" value="" style="whiteSpace=wrap;html=1;aspect=fixed;fillColor=#3333FF;" vertex="1" parent="1">
          <mxGeometry x="470" y="80" width="60" height="60" as="geometry" />
        </mxCell>
        <mxCell id="TIjbKh-YFhSQf0g--OvW-40" value="" style="rounded=1;whiteSpace=wrap;html=1;fillColor=#fad9d5;strokeColor=#ae4132;" vertex="1" parent="1">
          <mxGeometry x="295" y="245" width="50" height="20" as="geometry" />
        </mxCell>
        <mxCell id="TIjbKh-YFhSQf0g--OvW-41" value="" style="rounded=1;whiteSpace=wrap;html=1;fillColor=#fad9d5;strokeColor=#ae4132;" vertex="1" parent="1">
          <mxGeometry x="365" y="245" width="50" height="20" as="geometry" />
        </mxCell>
        <mxCell id="TIjbKh-YFhSQf0g--OvW-42" value="" style="rounded=1;whiteSpace=wrap;html=1;fillColor=#fad9d5;strokeColor=#ae4132;" vertex="1" parent="1">
          <mxGeometry x="435" y="245" width="50" height="20" as="geometry" />
        </mxCell>
        <mxCell id="TIjbKh-YFhSQf0g--OvW-43" value="" style="rounded=1;whiteSpace=wrap;html=1;fillColor=#fad9d5;strokeColor=#ae4132;" vertex="1" parent="1">
          <mxGeometry x="505" y="245" width="50" height="20" as="geometry" />
        </mxCell>
        <mxCell id="TIjbKh-YFhSQf0g--OvW-45" value="" style="ellipse;whiteSpace=wrap;html=1;aspect=fixed;fillColor=#00CC66;strokeColor=#82b366;" vertex="1" parent="1">
          <mxGeometry x="260" y="90" width="20" height="20" as="geometry" />
        </mxCell>
        <mxCell id="TIjbKh-YFhSQf0g--OvW-46" value="" style="ellipse;whiteSpace=wrap;html=1;aspect=fixed;fillColor=#FF9933;strokeColor=#d79b00;" vertex="1" parent="1">
          <mxGeometry x="330" y="90" width="20" height="20" as="geometry" />
        </mxCell>
        <mxCell id="TIjbKh-YFhSQf0g--OvW-47" value="" style="ellipse;whiteSpace=wrap;html=1;aspect=fixed;fillColor=#FF0000;strokeColor=#b85450;" vertex="1" parent="1">
          <mxGeometry x="405" y="90" width="20" height="20" as="geometry" />
        </mxCell>
        <mxCell id="TIjbKh-YFhSQf0g--OvW-48" value="" style="ellipse;whiteSpace=wrap;html=1;aspect=fixed;fillColor=#647687;fontColor=#ffffff;strokeColor=#314354;" vertex="1" parent="1">
          <mxGeometry x="510" y="120" width="10" height="10" as="geometry" />
        </mxCell>
        <mxCell id="TIjbKh-YFhSQf0g--OvW-49" value="&lt;span style=&quot;color: rgba(0, 0, 0, 0); font-family: monospace; font-size: 0px; text-align: start; text-wrap: nowrap;&quot;&gt;%3CmxGraphModel%3E%3Croot%3E%3CmxCell%20id%3D%220%22%2F%3E%3CmxCell%20id%3D%221%22%20parent%3D%220%22%2F%3E%3CmxCell%20id%3D%222%22%20value%3D%22%22%20style%3D%22rounded%3D0%3BwhiteSpace%3Dwrap%3Bhtml%3D1%3Bdirection%3Dsouth%3B%22%20vertex%3D%221%22%20parent%3D%221%22%3E%3CmxGeometry%20x%3D%22250%22%20y%3D%22240%22%20width%3D%2220%22%20height%3D%2240%22%20as%3D%22geometry%22%2F%3E%3C%2FmxCell%3E%3C%2Froot%3E%3C%2FmxGraphModel%3E&lt;/span&gt;&lt;span style=&quot;color: rgba(0, 0, 0, 0); font-family: monospace; font-size: 0px; text-align: start; text-wrap: nowrap;&quot;&gt;%3CmxGraphModel%3E%3Croot%3E%3CmxCell%20id%3D%220%22%2F%3E%3CmxCell%20id%3D%221%22%20parent%3D%220%22%2F%3E%3CmxCell%20id%3D%222%22%20value%3D%22%22%20style%3D%22rounded%3D0%3BwhiteSpace%3Dwrap%3Bhtml%3D1%3Bdirection%3Dsouth%3B%22%20vertex%3D%221%22%20parent%3D%221%22%3E%3CmxGeometry%20x%3D%22250%22%20y%3D%22240%22%20width%3D%2220%22%20height%3D%2240%22%20as%3D%22geometry%22%2F%3E%3C%2FmxCell%3E%3C%2Froot%3E%3C%2FmxGraphModel%3E&lt;/span&gt;" style="rounded=0;whiteSpace=wrap;html=1;direction=south;" vertex="1" parent="1">
          <mxGeometry x="250" y="240" width="20" height="30" as="geometry" />
        </mxCell>
        <mxCell id="TIjbKh-YFhSQf0g--OvW-50" value="&lt;span style=&quot;color: rgba(0, 0, 0, 0); font-family: monospace; font-size: 0px; text-align: start; text-wrap: nowrap;&quot;&gt;%3CmxGraphModel%3E%3Croot%3E%3CmxCell%20id%3D%220%22%2F%3E%3CmxCell%20id%3D%221%22%20parent%3D%220%22%2F%3E%3CmxCell%20id%3D%222%22%20value%3D%22%22%20style%3D%22rounded%3D0%3BwhiteSpace%3Dwrap%3Bhtml%3D1%3Bdirection%3Dsouth%3B%22%20vertex%3D%221%22%20parent%3D%221%22%3E%3CmxGeometry%20x%3D%22250%22%20y%3D%22240%22%20width%3D%2220%22%20height%3D%2240%22%20as%3D%22geometry%22%2F%3E%3C%2FmxCell%3E%3C%2Froot%3E%3C%2FmxGraphModel%3E&lt;/span&gt;&lt;span style=&quot;color: rgba(0, 0, 0, 0); font-family: monospace; font-size: 0px; text-align: start; text-wrap: nowrap;&quot;&gt;%3CmxGraphModel%3E%3Croot%3E%3CmxCell%20id%3D%220%22%2F%3E%3CmxCell%20id%3D%221%22%20parent%3D%220%22%2F%3E%3CmxCell%20id%3D%222%22%20value%3D%22%22%20style%3D%22rounded%3D0%3BwhiteSpace%3Dwrap%3Bhtml%3D1%3Bdirection%3Dsouth%3B%22%20vertex%3D%221%22%20parent%3D%221%22%3E%3CmxGeometry%20x%3D%22250%22%20y%3D%22240%22%20width%3D%2220%22%20height%3D%2240%22%20as%3D%22geometry%22%2F%3E%3C%2FmxCell%3E%3C%2Froot%3E%3C%2FmxGraphModel%3E&lt;/span&gt;" style="rounded=0;whiteSpace=wrap;html=1;direction=south;" vertex="1" parent="1">
          <mxGeometry x="250" y="280" width="20" height="30" as="geometry" />
        </mxCell>
        <mxCell id="TIjbKh-YFhSQf0g--OvW-51" value="&lt;span style=&quot;color: rgba(0, 0, 0, 0); font-family: monospace; font-size: 0px; text-align: start; text-wrap: nowrap;&quot;&gt;%3CmxGraphModel%3E%3Croot%3E%3CmxCell%20id%3D%220%22%2F%3E%3CmxCell%20id%3D%221%22%20parent%3D%220%22%2F%3E%3CmxCell%20id%3D%222%22%20value%3D%22%22%20style%3D%22rounded%3D0%3BwhiteSpace%3Dwrap%3Bhtml%3D1%3Bdirection%3Dsouth%3B%22%20vertex%3D%221%22%20parent%3D%221%22%3E%3CmxGeometry%20x%3D%22250%22%20y%3D%22240%22%20width%3D%2220%22%20height%3D%2240%22%20as%3D%22geometry%22%2F%3E%3C%2FmxCell%3E%3C%2Froot%3E%3C%2FmxGraphModel%3E&lt;/span&gt;&lt;span style=&quot;color: rgba(0, 0, 0, 0); font-family: monospace; font-size: 0px; text-align: start; text-wrap: nowrap;&quot;&gt;%3CmxGraphModel%3E%3Croot%3E%3CmxCell%20id%3D%220%22%2F%3E%3CmxCell%20id%3D%221%22%20parent%3D%220%22%2F%3E%3CmxCell%20id%3D%222%22%20value%3D%22%22%20style%3D%22rounded%3D0%3BwhiteSpace%3Dwrap%3Bhtml%3D1%3Bdirection%3Dsouth%3B%22%20vertex%3D%221%22%20parent%3D%221%22%3E%3CmxGeometry%20x%3D%22250%22%20y%3D%22240%22%20width%3D%2220%22%20height%3D%2240%22%20as%3D%22geometry%22%2F%3E%3C%2FmxCell%3E%3C%2Froot%3E%3C%2FmxGraphModel%3E&lt;/span&gt;" style="rounded=0;whiteSpace=wrap;html=1;direction=south;" vertex="1" parent="1">
          <mxGeometry x="250" y="320" width="20" height="30" as="geometry" />
        </mxCell>
        <mxCell id="TIjbKh-YFhSQf0g--OvW-53" value="&lt;span style=&quot;color: rgba(0, 0, 0, 0); font-family: monospace; font-size: 0px; text-align: start; text-wrap: nowrap;&quot;&gt;%3CmxGraphModel%3E%3Croot%3E%3CmxCell%20id%3D%220%22%2F%3E%3CmxCell%20id%3D%221%22%20parent%3D%220%22%2F%3E%3CmxCell%20id%3D%222%22%20value%3D%22%22%20style%3D%22rounded%3D0%3BwhiteSpace%3Dwrap%3Bhtml%3D1%3Bdirection%3Dsouth%3B%22%20vertex%3D%221%22%20parent%3D%221%22%3E%3CmxGeometry%20x%3D%22250%22%20y%3D%22240%22%20width%3D%2220%22%20height%3D%2240%22%20as%3D%22geometry%22%2F%3E%3C%2FmxCell%3E%3C%2Froot%3E%3C%2FmxGraphModel%3E&lt;/span&gt;&lt;span style=&quot;color: rgba(0, 0, 0, 0); font-family: monospace; font-size: 0px; text-align: start; text-wrap: nowrap;&quot;&gt;%3CmxGraphModel%3E%3Croot%3E%3CmxCell%20id%3D%220%22%2F%3E%3CmxCell%20id%3D%221%22%20parent%3D%220%22%2F%3E%3CmxCell%20id%3D%222%22%20value%3D%22%22%20style%3D%22rounded%3D0%3BwhiteSpace%3Dwrap%3Bhtml%3D1%3Bdirection%3Dsouth%3B%22%20vertex%3D%221%22%20parent%3D%221%22%3E%3CmxGeometry%20x%3D%22250%22%20y%3D%22240%22%20width%3D%2220%22%20height%3D%2240%22%20as%3D%22geometry%22%2F%3E%3C%2FmxCell%3E%3C%2Froot%3E%3C%2FmxGraphModel%3E&lt;/span&gt;" style="rounded=0;whiteSpace=wrap;html=1;direction=south;" vertex="1" parent="1">
          <mxGeometry x="250" y="360" width="20" height="30" as="geometry" />
        </mxCell>
        <mxCell id="TIjbKh-YFhSQf0g--OvW-54" value="" style="ellipse;whiteSpace=wrap;html=1;aspect=fixed;fillColor=#d5e8d4;gradientColor=#97d077;strokeColor=#82b366;" vertex="1" parent="1">
          <mxGeometry x="310" y="390" width="10" height="10" as="geometry" />
        </mxCell>
        <mxCell id="TIjbKh-YFhSQf0g--OvW-55" value="" style="endArrow=none;html=1;rounded=0;entryX=0.5;entryY=1;entryDx=0;entryDy=0;strokeColor=#999999;" edge="1" parent="1" target="TIjbKh-YFhSQf0g--OvW-36">
          <mxGeometry width="50" height="50" relative="1" as="geometry">
            <mxPoint x="295" y="245" as="sourcePoint" />
            <mxPoint x="270" y="150" as="targetPoint" />
            <Array as="points">
              <mxPoint x="345" y="225" />
            </Array>
          </mxGeometry>
        </mxCell>
        <mxCell id="TIjbKh-YFhSQf0g--OvW-56" value="" style="endArrow=none;html=1;rounded=0;entryX=0.617;entryY=0.983;entryDx=0;entryDy=0;entryPerimeter=0;strokeColor=#CCCC00;" edge="1" parent="1" target="TIjbKh-YFhSQf0g--OvW-36">
          <mxGeometry width="50" height="50" relative="1" as="geometry">
            <mxPoint x="310" y="245" as="sourcePoint" />
            <mxPoint x="280" y="135" as="targetPoint" />
            <Array as="points">
              <mxPoint x="360" y="225" />
            </Array>
          </mxGeometry>
        </mxCell>
        <mxCell id="TIjbKh-YFhSQf0g--OvW-58" value="" style="endArrow=none;html=1;rounded=0;entryX=0.25;entryY=1;entryDx=0;entryDy=0;strokeColor=#FF3333;" edge="1" parent="1" target="TIjbKh-YFhSQf0g--OvW-36">
          <mxGeometry width="50" height="50" relative="1" as="geometry">
            <mxPoint x="297.5" y="245" as="sourcePoint" />
            <mxPoint x="282.5" y="140" as="targetPoint" />
            <Array as="points">
              <mxPoint x="347.5" y="225" />
            </Array>
          </mxGeometry>
        </mxCell>
        <mxCell id="TIjbKh-YFhSQf0g--OvW-59" value="" style="endArrow=none;html=1;rounded=0;entryX=0.617;entryY=0.983;entryDx=0;entryDy=0;entryPerimeter=0;strokeColor=#CCCC00;" edge="1" parent="1">
          <mxGeometry width="50" height="50" relative="1" as="geometry">
            <mxPoint x="376.5" y="245" as="sourcePoint" />
            <mxPoint x="353.5" y="139" as="targetPoint" />
            <Array as="points">
              <mxPoint x="426.5" y="225" />
            </Array>
          </mxGeometry>
        </mxCell>
        <mxCell id="TIjbKh-YFhSQf0g--OvW-60" value="" style="endArrow=none;html=1;rounded=0;entryX=0.5;entryY=1;entryDx=0;entryDy=0;strokeColor=#999999;" edge="1" parent="1">
          <mxGeometry width="50" height="50" relative="1" as="geometry">
            <mxPoint x="365" y="245" as="sourcePoint" />
            <mxPoint x="350" y="140" as="targetPoint" />
            <Array as="points">
              <mxPoint x="415" y="225" />
            </Array>
          </mxGeometry>
        </mxCell>
        <mxCell id="TIjbKh-YFhSQf0g--OvW-62" value="" style="endArrow=none;html=1;rounded=0;entryX=0.25;entryY=1;entryDx=0;entryDy=0;strokeColor=#FF3333;" edge="1" parent="1">
          <mxGeometry width="50" height="50" relative="1" as="geometry">
            <mxPoint x="440" y="245" as="sourcePoint" />
            <mxPoint x="407.5" y="140" as="targetPoint" />
            <Array as="points">
              <mxPoint x="490" y="225" />
            </Array>
          </mxGeometry>
        </mxCell>
        <mxCell id="TIjbKh-YFhSQf0g--OvW-63" value="" style="endArrow=none;html=1;rounded=0;entryX=0.25;entryY=1;entryDx=0;entryDy=0;strokeColor=#FF3333;" edge="1" parent="1">
          <mxGeometry width="50" height="50" relative="1" as="geometry">
            <mxPoint x="506.25" y="245" as="sourcePoint" />
            <mxPoint x="473.75" y="140" as="targetPoint" />
            <Array as="points">
              <mxPoint x="556.25" y="225" />
            </Array>
          </mxGeometry>
        </mxCell>
        <mxCell id="TIjbKh-YFhSQf0g--OvW-64" value="" style="endArrow=none;html=1;rounded=0;entryX=0.5;entryY=1;entryDx=0;entryDy=0;strokeColor=#999999;" edge="1" parent="1">
          <mxGeometry width="50" height="50" relative="1" as="geometry">
            <mxPoint x="445" y="245" as="sourcePoint" />
            <mxPoint x="430" y="140" as="targetPoint" />
            <Array as="points">
              <mxPoint x="495" y="225" />
            </Array>
          </mxGeometry>
        </mxCell>
        <mxCell id="TIjbKh-YFhSQf0g--OvW-65" value="" style="endArrow=none;html=1;rounded=0;entryX=0.5;entryY=1;entryDx=0;entryDy=0;strokeColor=#999999;" edge="1" parent="1">
          <mxGeometry width="50" height="50" relative="1" as="geometry">
            <mxPoint x="510" y="245" as="sourcePoint" />
            <mxPoint x="495" y="140" as="targetPoint" />
            <Array as="points">
              <mxPoint x="560" y="225" />
            </Array>
          </mxGeometry>
        </mxCell>
        <mxCell id="TIjbKh-YFhSQf0g--OvW-66" value="" style="endArrow=none;html=1;rounded=0;entryX=0.617;entryY=0.983;entryDx=0;entryDy=0;entryPerimeter=0;strokeColor=#CCCC00;" edge="1" parent="1">
          <mxGeometry width="50" height="50" relative="1" as="geometry">
            <mxPoint x="460" y="245" as="sourcePoint" />
            <mxPoint x="437" y="139" as="targetPoint" />
            <Array as="points">
              <mxPoint x="510" y="225" />
            </Array>
          </mxGeometry>
        </mxCell>
        <mxCell id="TIjbKh-YFhSQf0g--OvW-67" value="" style="endArrow=none;html=1;rounded=0;entryX=0.617;entryY=0.983;entryDx=0;entryDy=0;entryPerimeter=0;strokeColor=#CCCC00;" edge="1" parent="1">
          <mxGeometry width="50" height="50" relative="1" as="geometry">
            <mxPoint x="528" y="245" as="sourcePoint" />
            <mxPoint x="505" y="139" as="targetPoint" />
            <Array as="points">
              <mxPoint x="578" y="225" />
            </Array>
          </mxGeometry>
        </mxCell>
        <mxCell id="TIjbKh-YFhSQf0g--OvW-68" value="" style="rounded=1;whiteSpace=wrap;html=1;fillColor=#999999;" vertex="1" parent="1">
          <mxGeometry x="270" y="390" width="30" height="10" as="geometry" />
        </mxCell>
        <mxCell id="TIjbKh-YFhSQf0g--OvW-69" value="" style="rounded=1;whiteSpace=wrap;html=1;fillColor=#0000CC;" vertex="1" parent="1">
          <mxGeometry x="330" y="390" width="230" height="10" as="geometry" />
        </mxCell>
      </root>
    </mxGraphModel>
  </diagram>
</mxfile>
